<?xml version="1.0" encoding="utf-8"?><svg xmlns="http://www.w3.org/2000/svg" xmlns:xlink="http://www.w3.org/1999/xlink"><symbol viewBox="0 0 9.6 6" id="arrow-down" xmlns="http://www.w3.org/2000/svg"><defs><style>.aa{fill:#13af7d}</style></defs><path class="aa" d="M0 0h9.6L4.76 6z"/></symbol><symbol viewBox="0 0 4.95 8.01" id="arrow-right" xmlns="http://www.w3.org/2000/svg"><defs><style>.ba{fill:#25c89b}</style></defs><path class="ba" d="M.2.19a.62.62 0 0 0 0 .88l2.42 2.29.69.64-.69.64L.2 6.9a.64.64 0 0 0 0 .89.69.69 0 0 0 1 0l3.62-3.4a.58.58 0 0 0 0-.82L1.15.18A.69.69 0 0 0 .2.19z"/></symbol><symbol viewBox="0 0 482.9 482.9" id="avatar" xmlns="http://www.w3.org/2000/svg"><path d="M239.7 260.2h3.2c29.3-.5 53-10.8 70.5-30.5 38.5-43.4 32.1-117.8 31.4-124.9-2.5-53.3-27.7-78.8-48.5-90.7C280.8 5.2 262.7.4 242.5 0H240.8c-11.1 0-32.9 1.8-53.8 13.7-21 11.9-46.6 37.4-49.1 91.1-.7 7.1-7.1 81.5 31.4 124.9 17.4 19.7 41.1 30 70.4 30.5zm-75.1-152.9c0-.3.1-.6.1-.8 3.3-71.7 54.2-79.4 76-79.4H241.9c27 .6 72.9 11.6 76 79.4 0 .3 0 .6.1.8.1.7 7.1 68.7-24.7 104.5-12.6 14.2-29.4 21.2-51.5 21.4h-1c-22-.2-38.9-7.2-51.4-21.4-31.7-35.6-24.9-103.9-24.8-104.5z"/><path d="M446.8 383.6v-.3c0-.8-.1-1.6-.1-2.5-.6-19.8-1.9-66.1-45.3-80.9-.3-.1-.7-.2-1-.3-45.1-11.5-82.6-37.5-83-37.8-6.1-4.3-14.5-2.8-18.8 3.3-4.3 6.1-2.8 14.5 3.3 18.8 1.7 1.2 41.5 28.9 91.3 41.7 23.3 8.3 25.9 33.2 26.6 56 0 .9 0 1.7.1 2.5.1 9-.5 22.9-2.1 30.9-16.2 9.2-79.7 41-176.3 41-96.2 0-160.1-31.9-176.4-41.1-1.6-8-2.3-21.9-2.1-30.9 0-.8.1-1.6.1-2.5.7-22.8 3.3-47.7 26.6-56 49.8-12.8 89.6-40.6 91.3-41.7 6.1-4.3 7.6-12.7 3.3-18.8-4.3-6.1-12.7-7.6-18.8-3.3-.4.3-37.7 26.3-83 37.8-.4.1-.7.2-1 .3-43.4 14.9-44.7 61.2-45.3 80.9 0 .9 0 1.7-.1 2.5v.3c-.1 5.2-.2 31.9 5.1 45.3 1 2.6 2.8 4.8 5.2 6.3 3 2 74.9 47.8 195.2 47.8s192.2-45.9 195.2-47.8c2.3-1.5 4.2-3.7 5.2-6.3 5-13.3 4.9-40 4.8-45.2z"/></symbol><symbol viewBox="0 0 5 5" id="close" xmlns="http://www.w3.org/2000/svg"><defs><style>.da{fill:#5a4fef}</style></defs><path class="da" d="M2.5 1.9L4.32.12a.4.4 0 0 1 .57 0 .41.41 0 0 1 0 .57L3.44 2.1 3 2.5l.41.4 1.47 1.41a.41.41 0 0 1 0 .57.4.4 0 0 1-.57 0L2.5 3.1.69 4.88a.41.41 0 0 1-.58 0 .41.41 0 0 1 0-.57L1.56 2.9 2 2.5l-.41-.4L.12.69a.41.41 0 0 1 0-.57.4.4 0 0 1 .57 0z"/></symbol><symbol viewBox="0 0 15 12" id="dashboard" xmlns="http://www.w3.org/2000/svg"><defs><style>.ea{fill:#99a5b7}</style></defs><path class="ea" d="M7.5 0A7.51 7.51 0 0 0 0 7.54 7.59 7.59 0 0 0 1.5 12l1.2-.9a6 6 0 0 1 4.8-9.59 6 6 0 0 1 4.81 9.59l1.19.9A7.59 7.59 0 0 0 15 7.54 7.51 7.51 0 0 0 7.5 0zm2.77 3.7L7.62 6.36H7.5a1.23 1.23 0 1 0 1.19 1.3.17.17 0 0 0 0-.1v-.11l2.65-2.67-1.07-1.08z"/></symbol><symbol viewBox="0 0 13 13" id="export" xmlns="http://www.w3.org/2000/svg"><defs><style>.fa{fill:#13af7d}</style></defs><path class="fa" d="M1.3 0A1.3 1.3 0 0 0 0 1.3v10.4A1.3 1.3 0 0 0 1.3 13h6.5a1.3 1.3 0 0 0 1.3-1.3V9.1H7.8v2.6H1.3V1.3h6.5v2.6h1.3V1.3A1.3 1.3 0 0 0 7.8 0zm9.1 4.55v1.3H3.9v1.3h6.5v1.3L13 6.5z"/></symbol><symbol viewBox="0 0 12 12" id="filter" xmlns="http://www.w3.org/2000/svg"><defs><style>.ga{fill:#13af7d}</style></defs><path class="ga" d="M0 0v1.33h12V0zm1.33 2.67l3.34 4V12h2.66V6.67l3.34-4z"/></symbol><symbol viewBox="0 0 13 13" id="highlight" xmlns="http://www.w3.org/2000/svg"><defs><style>.ha{fill:#13af7d}</style></defs><path class="ha" d="M10.4 0L3.25 5.81l4.14 4.29L13 2.69zm-8 6.73l-.86.88a.7.7 0 0 0 0 1 1.4 1.4 0 0 1 0 1.92l1.38 1.43a1.29 1.29 0 0 1 1.82 0 .64.64 0 0 0 .92 0L6.5 11zm-1.47 4.4L0 12l1.83 1 .43-.46-1.37-1.41z"/></symbol><symbol viewBox="0 0 16 17" id="notification" xmlns="http://www.w3.org/2000/svg"><defs><style>.ia{fill:#dcdcdc}</style></defs><path class="ia" d="M8 0a1.33 1.33 0 0 0-1.33 1.27v.59a6 6 0 0 0-4.89 5.79v3.82L0 13.44v1h16v-1l-1.78-2V7.65a6 6 0 0 0-4.89-5.79v-.58A1.34 1.34 0 0 0 8 0zM6.22 15.3a1.78 1.78 0 0 0 3.56 0z"/></symbol><symbol viewBox="0 0 15 13" id="report" xmlns="http://www.w3.org/2000/svg"><defs><style>.ja{fill:#99a5b7}</style></defs><path class="ja" d="M11.84 0v13H15V0zM7.89 3.25V13h3.16V3.25zM4 6.5V13h3.11V6.5zM0 9.75V13h3.16V9.75z"/></symbol><symbol viewBox="0 0 16 10" id="show" xmlns="http://www.w3.org/2000/svg"><defs><style>.ka{fill:#13af7d}</style></defs><path class="ka" d="M8 0C3.65 0 .31 4.36.16 4.58a.64.64 0 0 0 0 .84C.31 5.64 3.65 10 8 10s7.69-4.36 7.84-4.58a.64.64 0 0 0 0-.84C15.69 4.36 12.35 0 8 0zm0 1.43A3.57 3.57 0 1 1 4.38 5 3.56 3.56 0 0 1 8 1.43zm0 1.78A1.79 1.79 0 1 0 9.81 5 1.8 1.8 0 0 0 8 3.21z"/></symbol><symbol viewBox="0 0 15 9.5" id="submit" xmlns="http://www.w3.org/2000/svg"><defs><style>.la{fill:#13af7d}</style></defs><path class="la" d="M.75 0h13.5a.76.76 0 0 1 .75.75.76.76 0 0 1-.75.75H.75A.76.76 0 0 1 0 .75.76.76 0 0 1 .75 0zM2.75 4h9.5a.76.76 0 0 1 .75.75.76.76 0 0 1-.75.75h-9.5A.76.76 0 0 1 2 4.75.76.76 0 0 1 2.75 4zM5.75 8h3.5a.76.76 0 0 1 .75.75.76.76 0 0 1-.75.75h-3.5A.76.76 0 0 1 5 8.75.76.76 0 0 1 5.75 8z"/></symbol></svg>