<?xml version="1.0" encoding="utf-8"?><svg xmlns="http://www.w3.org/2000/svg" xmlns:xlink="http://www.w3.org/1999/xlink"><symbol viewBox="0 0 9.6 6" id="arrow-down" xmlns="http://www.w3.org/2000/svg"><defs><style>.aa{fill:#13af7d}</style></defs><path class="aa" d="M0 0h9.6L4.76 6z"/></symbol><symbol viewBox="0 0 4.95 8.01" id="arrow-right" xmlns="http://www.w3.org/2000/svg"><defs><style>.ba{fill:#25c89b}</style></defs><path class="ba" d="M.2.19a.62.62 0 0 0 0 .88l2.42 2.29.69.64-.69.64L.2 6.9a.64.64 0 0 0 0 .89.69.69 0 0 0 1 0l3.62-3.4a.58.58 0 0 0 0-.82L1.15.18A.69.69 0 0 0 .2.19z"/></symbol><symbol viewBox="0 0 5 5" id="close" xmlns="http://www.w3.org/2000/svg"><defs><style>.ca{fill:#5a4fef}</style></defs><path class="ca" d="M2.5 1.9L4.32.12a.4.4 0 0 1 .57 0 .41.41 0 0 1 0 .57L3.44 2.1 3 2.5l.41.4 1.47 1.41a.41.41 0 0 1 0 .57.4.4 0 0 1-.57 0L2.5 3.1.69 4.88a.41.41 0 0 1-.58 0 .41.41 0 0 1 0-.57L1.56 2.9 2 2.5l-.41-.4L.12.69a.41.41 0 0 1 0-.57.4.4 0 0 1 .57 0z"/></symbol><symbol viewBox="0 0 15 12" id="dashboard" xmlns="http://www.w3.org/2000/svg"><defs><style>.da{fill:#99a5b7}</style></defs><path class="da" d="M7.5 0A7.51 7.51 0 0 0 0 7.54 7.59 7.59 0 0 0 1.5 12l1.2-.9a6 6 0 0 1 4.8-9.59 6 6 0 0 1 4.81 9.59l1.19.9A7.59 7.59 0 0 0 15 7.54 7.51 7.51 0 0 0 7.5 0zm2.77 3.7L7.62 6.36H7.5a1.23 1.23 0 1 0 1.19 1.3.17.17 0 0 0 0-.1v-.11l2.65-2.67-1.07-1.08z"/></symbol><symbol viewBox="0 0 13 13" id="export" xmlns="http://www.w3.org/2000/svg"><defs><style>.ea{fill:#13af7d}</style></defs><path class="ea" d="M1.3 0A1.3 1.3 0 0 0 0 1.3v10.4A1.3 1.3 0 0 0 1.3 13h6.5a1.3 1.3 0 0 0 1.3-1.3V9.1H7.8v2.6H1.3V1.3h6.5v2.6h1.3V1.3A1.3 1.3 0 0 0 7.8 0zm9.1 4.55v1.3H3.9v1.3h6.5v1.3L13 6.5z"/></symbol><symbol viewBox="0 0 12 12" id="filter" xmlns="http://www.w3.org/2000/svg"><defs><style>.fa{fill:#13af7d}</style></defs><path class="fa" d="M0 0v1.33h12V0zm1.33 2.67l3.34 4V12h2.66V6.67l3.34-4z"/></symbol><symbol viewBox="0 0 13 13" id="highlight" xmlns="http://www.w3.org/2000/svg"><defs><style>.ga{fill:#13af7d}</style></defs><path class="ga" d="M10.4 0L3.25 5.81l4.14 4.29L13 2.69zm-8 6.73l-.86.88a.7.7 0 0 0 0 1 1.4 1.4 0 0 1 0 1.92l1.38 1.43a1.29 1.29 0 0 1 1.82 0 .64.64 0 0 0 .92 0L6.5 11zm-1.47 4.4L0 12l1.83 1 .43-.46-1.37-1.41z"/></symbol><symbol viewBox="0 0 30 30" id="minus" xmlns="http://www.w3.org/2000/svg"><defs><style>.ha{opacity:.5}.hb{fill:none;stroke:#13af7d}.hc{fill:#13af7d}</style></defs><g class="ha"><circle class="hb" cx="15" cy="15" r="14.5"/><path class="hc" d="M12 14h6a1 1 0 0 1 1 1 1 1 0 0 1-1 1h-6a1 1 0 0 1-1-1 1 1 0 0 1 1-1z"/></g></symbol><symbol viewBox="0 0 16 17" id="notification" xmlns="http://www.w3.org/2000/svg"><defs><style>.ia{fill:#dcdcdc}</style></defs><path class="ia" d="M8 0a1.33 1.33 0 0 0-1.33 1.27v.59a6 6 0 0 0-4.89 5.79v3.82L0 13.44v1h16v-1l-1.78-2V7.65a6 6 0 0 0-4.89-5.79v-.58A1.34 1.34 0 0 0 8 0zM6.22 15.3a1.78 1.78 0 0 0 3.56 0z"/></symbol><symbol viewBox="0 0 30 30" id="plus" xmlns="http://www.w3.org/2000/svg"><defs><style>.ja{fill:none;stroke:#13af7d}.jb{fill:#13af7d}</style></defs><circle class="ja" cx="15" cy="15" r="14.5"/><path class="jb" d="M12 14h6a1 1 0 0 1 1 1 1 1 0 0 1-1 1h-6a1 1 0 0 1-1-1 1 1 0 0 1 1-1z"/><path class="jb" d="M16 12v6a1 1 0 0 1-1 1 1 1 0 0 1-1-1v-6a1 1 0 0 1 1-1 1 1 0 0 1 1 1z"/></symbol><symbol viewBox="0 0 15 13" id="report" xmlns="http://www.w3.org/2000/svg"><defs><style>.ka{fill:#99a5b7}</style></defs><path class="ka" d="M11.84 0v13H15V0zM7.89 3.25V13h3.16V3.25zM4 6.5V13h3.11V6.5zM0 9.75V13h3.16V9.75z"/></symbol><symbol viewBox="0 0 16 10" id="show" xmlns="http://www.w3.org/2000/svg"><defs><style>.la{fill:#13af7d}</style></defs><path class="la" d="M8 0C3.65 0 .31 4.36.16 4.58a.64.64 0 0 0 0 .84C.31 5.64 3.65 10 8 10s7.69-4.36 7.84-4.58a.64.64 0 0 0 0-.84C15.69 4.36 12.35 0 8 0zm0 1.43A3.57 3.57 0 1 1 4.38 5 3.56 3.56 0 0 1 8 1.43zm0 1.78A1.79 1.79 0 1 0 9.81 5 1.8 1.8 0 0 0 8 3.21z"/></symbol><symbol viewBox="0 0 15 9.5" id="submit" xmlns="http://www.w3.org/2000/svg"><defs><style>.ma{fill:#13af7d}</style></defs><path class="ma" d="M.75 0h13.5a.76.76 0 0 1 .75.75.76.76 0 0 1-.75.75H.75A.76.76 0 0 1 0 .75.76.76 0 0 1 .75 0zM2.75 4h9.5a.76.76 0 0 1 .75.75.76.76 0 0 1-.75.75h-9.5A.76.76 0 0 1 2 4.75.76.76 0 0 1 2.75 4zM5.75 8h3.5a.76.76 0 0 1 .75.75.76.76 0 0 1-.75.75h-3.5A.76.76 0 0 1 5 8.75.76.76 0 0 1 5.75 8z"/></symbol></svg>