<?xml version="1.0" encoding="utf-8"?><svg width="76" height="63" viewBox="0 0 76 63" xmlns="http://www.w3.org/2000/svg" xmlns:xlink="http://www.w3.org/1999/xlink"><svg viewBox="0 0 9.6 6" width="9.6" height="6" id="arrow-down" xmlns="http://www.w3.org/2000/svg"><defs><style>.aa{fill:#13af7d}</style></defs><path class="aa" d="M0 0h9.6L4.76 6z"/></svg><svg viewBox="0 0 5 5" width="5" height="5" id="close" x="10" y="6" xmlns="http://www.w3.org/2000/svg"><defs><style>.ba{fill:#5a4fef}</style></defs><path class="ba" d="M2.5 1.9L4.32.12a.4.4 0 0 1 .57 0 .41.41 0 0 1 0 .57L3.44 2.1 3 2.5l.41.4 1.47 1.41a.41.41 0 0 1 0 .57.4.4 0 0 1-.57 0L2.5 3.1.69 4.88a.41.41 0 0 1-.58 0 .41.41 0 0 1 0-.57L1.56 2.9 2 2.5l-.41-.4L.12.69a.41.41 0 0 1 0-.57.4.4 0 0 1 .57 0z"/></svg><svg viewBox="0 0 15 12" width="15" height="12" id="dashboard" x="15" y="11" xmlns="http://www.w3.org/2000/svg"><defs><style>.ca{fill:#99a5b7}</style></defs><path class="ca" d="M7.5 0A7.51 7.51 0 0 0 0 7.54 7.59 7.59 0 0 0 1.5 12l1.2-.9a6 6 0 0 1 4.8-9.59 6 6 0 0 1 4.81 9.59l1.19.9A7.59 7.59 0 0 0 15 7.54 7.51 7.51 0 0 0 7.5 0zm2.77 3.7L7.62 6.36H7.5a1.23 1.23 0 1 0 1.19 1.3.17.17 0 0 0 0-.1v-.11l2.65-2.67-1.07-1.08z"/></svg><svg viewBox="0 0 16 17" width="16" height="17" id="notification" x="30" y="23" xmlns="http://www.w3.org/2000/svg"><defs><style>.da{fill:#dcdcdc}</style></defs><path class="da" d="M8 0a1.33 1.33 0 0 0-1.33 1.27v.59a6 6 0 0 0-4.89 5.79v3.82L0 13.44v1h16v-1l-1.78-2V7.65a6 6 0 0 0-4.89-5.79v-.58A1.34 1.34 0 0 0 8 0zM6.22 15.3a1.78 1.78 0 0 0 3.56 0z"/></svg><svg viewBox="0 0 15 13" width="15" height="13" id="report" x="46" y="40" xmlns="http://www.w3.org/2000/svg"><defs><style>.ea{fill:#99a5b7}</style></defs><path class="ea" d="M11.84 0v13H15V0zM7.89 3.25V13h3.16V3.25zM4 6.5V13h3.11V6.5zM0 9.75V13h3.16V9.75z"/></svg><svg viewBox="0 0 15 9.5" width="15" height="9.5" id="submit" x="61" y="53" xmlns="http://www.w3.org/2000/svg"><defs><style>.fa{fill:#13af7d}</style></defs><path class="fa" d="M.75 0h13.5a.76.76 0 0 1 .75.75.76.76 0 0 1-.75.75H.75A.76.76 0 0 1 0 .75.76.76 0 0 1 .75 0zM2.75 4h9.5a.76.76 0 0 1 .75.75.76.76 0 0 1-.75.75h-9.5A.76.76 0 0 1 2 4.75.76.76 0 0 1 2.75 4zM5.75 8h3.5a.76.76 0 0 1 .75.75.76.76 0 0 1-.75.75h-3.5A.76.76 0 0 1 5 8.75.76.76 0 0 1 5.75 8z"/></svg></svg>